<?xml version="1.0" encoding="utf-8"?>
<!-- Svg Vector Icons : http://www.onlinewebfonts.com/icon -->
<!DOCTYPE svg PUBLIC "-//W3C//DTD SVG 1.1//EN" "http://www.w3.org/Graphics/SVG/1.1/DTD/svg11.dtd">
<svg id="twitter-home-logo" version="1.1" xmlns="http://www.w3.org/2000/svg" xmlns:xlink="http://www.w3.org/1999/xlink" x="0px" y="0px" viewBox="0 0 1000 1000" enable-background="new 0 0 1000 1000" xml:space="preserve">
<metadata> Svg Vector Icons : http://www.onlinewebfonts.com/icon </metadata>
<g><path d="M970.5,405.3l-97.8-88.5c-0.9-1.2-2-3.9-2.4-5.5V103.7c0-36-29.3-65.4-65.3-65.4h-87.1c-36,0-65.4,29.4-65.4,65.4v13.9L545.4,20.7C533.1,9.5,516.9,3.4,500,3.4c-16.9,0-33.1,6.1-45.3,17.3L29.6,405.2c-21.3,19.3-22.4,42.7-16.5,58.3c6,15.5,22.7,32.2,51.3,32.2h53.9l52.6,440.8c4.1,33.7,33.8,60.1,67.7,60.1h522.7c33.9,0,63.6-26.4,67.6-60l52.8-440.9h53.9c28.6,0,45.3-16.6,51.3-32.2C992.8,448,991.7,424.5,970.5,405.3 M935.6,452.1h-70.8c-11.9,0-23,9.7-24.4,21.6l-54.8,457.7c-1.4,11.9-12.4,21.6-24.4,21.6H238.7c-12,0-23-9.7-24.4-21.6l-54.7-457.7c-1.4-11.9-12.4-21.6-24.4-21.6H64.4c-12,0-14.5-6.6-5.7-14.6L483.8,53c4.4-4,10.3-6,16.1-6c5.9,0,11.7,2,16.2,6l163.7,148.2c3.3,3,6.5,4.4,9,4.4c4.3,0,7.1-4.1,7.1-11.6v-90.3c0-11.9,9.8-21.8,21.9-21.8H805c11.9,0,21.8,9.8,21.8,21.8v208.5c0,11.9,7.3,28.4,16.1,36.4l98.4,89C950.1,445.6,947.6,452.1,935.6,452.1 M499.3,386.8C403.3,386.8,325,465,325,561c0,96.1,78.2,174.3,174.3,174.3c96.1,0,174.3-78.2,174.3-174.3C673.6,465,595.4,386.8,499.3,386.8 M499.3,691.8c-72.1,0-130.6-58.7-130.6-130.7c0-72.1,58.6-130.7,130.6-130.7c72,0,130.7,58.6,130.7,130.7C630,633.1,571.3,691.8,499.3,691.8"/></g>
</svg>